<svg xmlns="http://www.w3.org/2000/svg" xmlns:xlink="http://www.w3.org/1999/xlink" width="500" zoomAndPan="magnify" viewBox="0 0 375 374.999991" height="500" preserveAspectRatio="xMidYMid meet" version="1.0"><defs><clipPath id="8ec6932627"><path d="M 10.566406 0 L 364.566406 0 L 364.566406 375 L 10.566406 375 Z M 10.566406 0 " clip-rule="nonzero"/></clipPath></defs><g clip-path="url(#8ec6932627)"><path fill="#0181ca" d="M 21.980469 375.0625 L 364.238281 365.585938 L 344.089844 0.0273438 L 10.757812 37.527344 Z M 21.980469 375.0625 " fill-opacity="1" fill-rule="nonzero"/></g><path fill="#ffffff" d="M 62.523438 78.125 C 62.523438 78.125 64.941406 227.996094 54.390625 300.117188 L 119.425781 300.117188 C 119.425781 300.117188 139.75 202.113281 165.160156 202.113281 C 190.570312 202.113281 159.0625 300.117188 159.0625 300.117188 L 215.96875 300.117188 C 215.96875 300.117188 240.359375 201.277344 260.683594 201.277344 C 281.003906 201.277344 255.605469 300.117188 255.605469 300.117188 L 316.578125 300.117188 C 316.578125 300.117188 340 76.648438 273.902344 76.648438 C 234.265625 76.648438 214.941406 110.308594 214.941406 140.355469 L 210.898438 140.355469 C 210.898438 140.355469 213.988281 74.980469 175.332031 74.980469 C 136.679688 74.980469 121.472656 132.839844 121.472656 157.882812 C 121.472656 182.925781 121.472656 185.417969 121.472656 185.417969 L 113.339844 185.417969 L 113.339844 78.125 Z M 62.523438 78.125 " fill-opacity="1" fill-rule="nonzero"/></svg>