<svg xmlns="http://www.w3.org/2000/svg" width="500" height="500" viewBox="0 0 375 375"><path fill="#fff" fill-rule="evenodd" d="m21.98 375.063 342.258-9.477L344.09.027l-333.332 37.5ZM62.523 78.125s2.418 149.871-8.132 221.992h65.035s20.324-98.004 45.734-98.004-6.097 98.004-6.097 98.004h56.906s24.39-98.84 44.715-98.84c20.32 0-5.079 98.84-5.079 98.84h60.973S340 76.648 273.902 76.648c-39.636 0-58.96 33.66-58.96 63.707h-4.044s3.09-65.375-35.566-65.375c-38.652 0-53.86 57.86-53.86 82.903v27.535h-8.132V78.125Z"/></svg>